<svg width="96" height="96" viewBox="0 0 96 96" fill="none" xmlns="http://www.w3.org/2000/svg">
  <defs>
    <linearGradient id="bg" x1="10" y1="10" x2="82" y2="86" gradientUnits="userSpaceOnUse">
      <stop stop-color="#F8FCFF"/>
      <stop offset="0.45" stop-color="#CFE7FF"/>
      <stop offset="1" stop-color="#7AB8FF"/>
    </linearGradient>
    <linearGradient id="ring" x1="25" y1="22" x2="72" y2="72" gradientUnits="userSpaceOnUse">
      <stop stop-color="#FFFFFF"/>
      <stop offset="0.35" stop-color="#F1F8FF"/>
      <stop offset="1" stop-color="#2E7FE8"/>
    </linearGradient>
    <radialGradient id="glow" cx="0" cy="0" r="1" gradientUnits="userSpaceOnUse" gradientTransform="translate(31 25) rotate(43.2643) scale(42.4237)">
      <stop stop-color="#FFFFFF" stop-opacity="0.92"/>
      <stop offset="1" stop-color="#FFFFFF" stop-opacity="0"/>
    </radialGradient>
    <filter id="shadow" x="4" y="4" width="88" height="88" filterUnits="userSpaceOnUse" color-interpolation-filters="sRGB">
      <feFlood flood-opacity="0" result="BackgroundImageFix"/>
      <feColorMatrix in="SourceAlpha" type="matrix" values="0 0 0 0 0 0 0 0 0 0 0 0 0 0 0 0 0 0 127 0" result="hardAlpha"/>
      <feOffset dy="8"/>
      <feGaussianBlur stdDeviation="6"/>
      <feColorMatrix type="matrix" values="0 0 0 0 0.282353 0 0 0 0 0.505882 0 0 0 0 0.788235 0 0 0 0.28 0"/>
      <feBlend mode="normal" in2="BackgroundImageFix" result="effect1_dropShadow_1_2"/>
      <feBlend mode="normal" in="SourceGraphic" in2="effect1_dropShadow_1_2" result="shape"/>
    </filter>
  </defs>

  <g filter="url(#shadow)">
    <rect x="12" y="12" width="72" height="72" rx="24" fill="url(#bg)"/>
    <rect x="12.75" y="12.75" width="70.5" height="70.5" rx="23.25" stroke="rgba(255,255,255,0.65)" stroke-width="1.5"/>
    <path d="M28 46.5C28 34.6259 37.6259 25 49.5 25C61.3741 25 71 34.6259 71 46.5C71 58.3741 61.3741 68 49.5 68H44.5" stroke="url(#ring)" stroke-width="9" stroke-linecap="round"/>
    <path d="M51 58L68 74" stroke="#2E7FE8" stroke-width="7" stroke-linecap="round"/>
    <circle cx="33" cy="28" r="20" fill="url(#glow)" fill-opacity="0.95"/>
    <path d="M24 20C31 17 41 18 47 23" stroke="white" stroke-opacity="0.85" stroke-width="3" stroke-linecap="round"/>
  </g>
</svg>
